<svg width="34" height="21" viewBox="0 0 34 21" fill="none" xmlns="http://www.w3.org/2000/svg">
<path fill-rule="evenodd" clip-rule="evenodd" d="M0.5 1.5C0.5 0.671573 1.17157 0 2 0H32C32.8284 0 33.5 0.671573 33.5 1.5C33.5 2.32843 32.8284 3 32 3H2C1.17157 3 0.5 2.32843 0.5 1.5Z" fill="white"/>
<path fill-rule="evenodd" clip-rule="evenodd" d="M0.5 10.5C0.5 9.67157 1.17157 9 2 9H32C32.8284 9 33.5 9.67157 33.5 10.5C33.5 11.3284 32.8284 12 32 12H2C1.17157 12 0.5 11.3284 0.5 10.5Z" fill="white"/>
<path fill-rule="evenodd" clip-rule="evenodd" d="M0.5 19.5C0.5 18.6716 1.17157 18 2 18H32C32.8284 18 33.5 18.6716 33.5 19.5C33.5 20.3284 32.8284 21 32 21H2C1.17157 21 0.5 20.3284 0.5 19.5Z" fill="white"/>
</svg>
