<svg width="25" height="25" viewBox="0 0 25 25" fill="none" xmlns="http://www.w3.org/2000/svg">
<path d="M19.3119 24C16.1078 23.8753 13.102 23.0475 10.3504 21.4011C5.62105 18.5725 2.65403 14.4494 1.4303 9.07835C1.16033 7.89282 1.05786 6.68824 1.00532 5.47579C0.910728 3.28917 2.08847 2.05177 3.73784 1.4183C4.419 1.15572 5.12052 0.939754 5.8654 1.01525C6.52226 1.08089 7.08518 1.33559 7.50754 1.88241C8.236 2.83032 8.9881 3.75984 9.72838 4.69856C10.6125 5.82108 10.5383 7.22981 9.54446 8.26502C9.2042 8.6195 8.87578 8.98711 8.52501 9.32977C8.37525 9.47616 8.32796 9.62977 8.39364 9.81095C8.58019 10.3322 8.70565 10.8921 8.98481 11.3602C10.378 13.6991 12.3519 15.3868 14.8768 16.4148C15.4976 16.6675 15.5061 16.6458 15.9935 16.1863C16.2729 15.9211 16.5527 15.6566 16.8329 15.3927C17.7867 14.4999 19.193 14.4126 20.2315 15.2109C21.27 16.0091 22.3105 16.8329 23.3332 17.6653C23.5432 17.8395 23.7118 18.0581 23.827 18.3054C23.9422 18.5526 24.001 18.8223 23.9993 19.095C24.0222 20.6705 23.5171 22.0582 22.3335 23.1381C21.6424 23.7689 20.7833 23.9915 19.8617 24C19.6719 24 19.4919 24 19.3119 24ZM19.4985 22.9372C19.6955 22.9372 19.8926 22.9451 20.0896 22.9372C20.9166 22.8991 21.5899 22.5539 22.0871 21.8935C22.6284 21.1714 22.8944 20.3423 22.9831 19.46C23.0304 18.9907 22.8655 18.5902 22.4635 18.2837C21.5255 17.5695 20.6079 16.829 19.6778 16.1036C18.973 15.5542 18.167 15.5949 17.5187 16.2041C17.0589 16.6353 16.5958 17.064 16.1393 17.4986C15.9528 17.6765 15.7498 17.7611 15.4923 17.6824C15.1553 17.5833 14.8046 17.5215 14.4801 17.3916C11.8329 16.3308 9.7691 14.5623 8.23994 12.1696C7.71971 11.3549 7.36895 10.4674 7.3072 9.48535C7.29525 9.3758 7.30804 9.26496 7.34465 9.161C7.38126 9.05705 7.44074 8.96263 7.51871 8.8847C7.94632 8.44292 8.36474 7.99325 8.78841 7.54884C9.43213 6.87336 9.47417 6.06856 8.89614 5.33531C8.16637 4.40907 7.42544 3.49135 6.70421 2.5592C6.50756 2.30501 6.21972 2.13717 5.90153 2.09116C5.31036 1.98219 4.76122 2.16862 4.22391 2.35702C3.02384 2.7778 1.98403 3.5826 2.05629 5.41802C2.11015 6.74798 2.25334 8.05955 2.56207 9.35669C4.41769 17.1382 11.4743 22.8 19.4985 22.9359V22.9372Z" fill="#FF792F" stroke="#FF792F" stroke-width="0.575"/>
</svg>
